<svg xmlns="http://www.w3.org/2000/svg" width="495.698" height="412" viewBox="0 0 495.6976744186047 412"><path fill="none" stroke="#000" d="M80 320h400M80 282.5h400M80 245h400M80 207.5h400M80 170h400M80 132.5h400M80 95h400M80 57.5h400M80 20h400" opacity=".3"/><path fill="none" stroke="#000" d="M140.465 326v-6" stroke-width="2"/><path fill="#94fff5" d="M107.907 320V57.5h65.116V320"/><path fill="#94fff5" stroke="#000" d="M233.488 326v-6" stroke-width="2"/><path fill="#94fff5" d="M200.93 320V170h65.117v150"/><path fill="#94fff5" stroke="#000" d="M326.512 326v-6" stroke-width="2"/><path fill="#94fff5" d="M293.953 320V207.5h65.117V320"/><path fill="#94fff5" stroke="#000" d="M419.535 326v-6" stroke-width="2"/><path fill="#94fff5" d="M386.977 320V57.5h65.116V320"/><path fill="#94fff5" stroke="#000" d="M80 320h400M80 320V20" stroke-width="2"/></svg>
